# xmcd
#
# Track frame offsets:
#	150
#	15525
#	30586
#	46936
#	60900
#	74362
#	90154
#	105452
#	120770
#	134844
#	148836
#	162750
#	178574
#	192164
#	203906
#	217401
#	232154
#
# Disc length: 3380 seconds
#
# Revision: 1
# Processed by: cddbd v1.5.2PL0 Copyright (c) Steve Scherf et al.
# Submitted via: audiograbber 1.83.01
#
DISCID=eb0d3211
DTITLE=Ekki Göpelt - Fühl dich wohl in deinem Leben
DYEAR=2011
DGENRE=Pop
TTITLE0=Fühl dich wohl in deinem Leben
TTITLE1=Ich hätt Dich so gern wach geküßt
TTITLE2=Ich habe noch Zeit
TTITLE3=Wahre Freunde fallen nicht vom Himmel
TTITLE4=Gruß und Kuß am Telefon
TTITLE5=Laß uns mahl wieder tanzen gehn
TTITLE6=Das Glück es ist nicht ausgeflogen
TTITLE7=Gibts was Schöneres als Liebe
TTITLE8=Bleib noch ein bisschen hier
TTITLE9=Das vergessene Land
TTITLE10=Du bist zu schön um wahr zu sein
TTITLE11=Wenn_die_Allerletzten_gehn
TTITLE12=Ich war nun mal der Beste
TTITLE13=Nichts ist für die Ewigkeit
TTITLE14=Wenn die Nacht...
TTITLE15=Begrabt mich in der Kneipe
TTITLE16=Reality
EXTD=
EXTT0=
EXTT1=
EXTT2=
EXTT3=
EXTT4=
EXTT5=
EXTT6=
EXTT7=
EXTT8=
EXTT9=
EXTT10=
EXTT11=
EXTT12=
EXTT13=
EXTT14=
EXTT15=
EXTT16=
PLAYORDER=
